<?xml version="1.0" encoding="UTF-8"?>
<svg id="Layer_1" data-name="Layer 1" xmlns="http://www.w3.org/2000/svg" viewBox="0 0 1000 1000">
  <defs>
    <style>
      .cls-1 {
        fill: #daf3fb;
      }

      .cls-2 {
        fill: #7ab7d1;
      }
    </style>
  </defs>
  <path class="cls-2" d="M1087.23,1127.49c-46.67-10.34-76.07-27.87-80.81-51.99-5.26-26.74,20.57-57.47,68.54-87.62.06-.58.12-1.17.19-1.75-74.17,40.98-115.99,84.87-108.55,122.65,7.26,36.86,60.09,61.32,140.79,71.61-8.05-16.94-14.81-34.62-20.15-52.9Z"/>
  <g>
    <polygon class="cls-2" points="613.73 387.93 613.73 559.13 500.01 629.16 386.29 559.13 386.29 387.93 613.73 387.93"/>
    <path class="cls-1" d="M500,208.5c-160.99,0-291.5,130.51-291.5,291.5s130.51,291.5,291.5,291.5,291.5-130.51,291.5-291.5-130.51-291.5-291.5-291.5ZM500.01,686.45c-102.97,0-186.45-83.48-186.45-186.45s83.48-186.45,186.45-186.45,186.45,83.48,186.45,186.45-83.48,186.45-186.45,186.45Z"/>
    <g>
      <path class="cls-2" d="M199.44,596.53c-40.75-9.03-66.41-24.34-70.56-45.39-4.6-23.34,17.96-50.18,59.84-76.5.05-.51.11-1.02.16-1.53-64.75,35.78-101.27,74.1-94.78,107.09,6.33,32.18,52.46,53.54,122.92,62.52-7.03-14.79-12.93-30.22-17.59-46.18Z"/>
      <path class="cls-2" d="M905.89,420.39c-6.6-33.53-56.41-55.32-131.93-63.58.21.38.42.76.62,1.13,50.88,8.3,83.41,24.81,88.12,48.74,4.26,21.66-14.86,46.34-51.1,70.82,1.01,10.21,1.52,20.57,1.52,31.05,0,6.08-.18,12.11-.52,18.11,63.83-35.54,99.73-73.53,93.29-106.26Z"/>
    </g>
  </g>
</svg>